<svg version="1.0" xmlns="http://www.w3.org/2000/svg" width="1562.667" height="1562.667" viewBox="0 0 1172 1172"><path d="M530 2.6c-7 1.2-11.1 2.9-13.8 5.8-5.7 6-5.7 6-5.7 67.1 0 61.5.1 62.3 5.9 68.1 5.8 5.8 6.7 5.9 67.1 5.9 60.2 0 60.9-.1 67.1-5.8 6.4-6 6.6-8.6 6.2-69-.5-58.5-.7-60.7-6.7-66.8-5.2-5.2-6.4-5.3-64.1-5.5-29.4-.1-54.6 0-56 .2zM346 51.7c-3.8.7-16 6.6-25.3 12.1-4.5 2.7-20.3 11.8-35.2 20.2-37.7 21.2-46.1 27.3-48.6 34.7-2.7 8.3 3.2 21.2 26.7 58.8 8.3 13.2 17.7 28.5 20.8 34 11.5 19.8 16.3 24.5 24.9 24.5 7.1 0 12.9-2.8 52.7-25.5 41.2-23.4 48.1-27.7 54.5-33.6 11.2-10.3 9.2-17.2-19-65.4-17.1-29.3-28.2-46.8-33.6-52.9-5.2-6-10.9-8.2-17.9-6.9zM809.2 54c-5 3-10.5 11.4-32.8 49.5-26.4 45.2-29.7 51.9-30.2 60.5-.7 12.3 1.9 14.4 57.3 46 44.6 25.5 48 27.2 55.2 27.3 4.4.1 5.8-.3 9-2.9 6-4.8 9.1-9.6 33-50.5 25.7-44 29.2-50.8 30-58.2.9-8.7-2.3-13.3-15.7-22.4-8.4-5.7-78.6-45.3-86.4-48.8-7.1-3.1-14.7-3.3-19.4-.5zM111.7 242c-5.5 4.9-10.9 12.9-21.3 31.5-4.2 7.7-13.6 24.3-20.7 37-17.1 30.3-19.1 34.6-19.2 41.6 0 11.2 2.9 13.6 52 42.1 48.6 28.2 55.7 31.6 63.6 30.3 5.2-.9 11.3-6.4 17.5-16.1 8.3-12.8 45.4-78.2 48.5-85.4 3.5-8.1 3.8-15.7.9-20.5-3.5-5.6-15.2-13.5-51-34.5-43.8-25.7-52.4-30-60-30-5.3 0-6.1.3-10.3 4zM1027.9 243.8c-14 7.2-73.2 41.9-81.4 47.8-7.5 5.3-12.5 10.1-13.6 13.2-1.5 3.8-1 9.8 1.1 15.5 1.8 4.9 27.3 50.5 44 78.7 12.8 21.6 18.7 26.9 28.7 25.4 6.4-.9 23.4-9.8 59.8-31.1 37.6-22.1 43-25.7 47.4-31.3 3.1-4.2 3.3-4.8 2.8-10.6-.7-8.7-2.4-12-41.7-81-15.6-27.4-20.3-32.4-30.1-32.4-4.9 0-7.1.8-17 5.8zM594.5 278.9c-2.7 6.4-30.9 73.2-62.8 148.6-31.9 75.3-60 141.9-62.4 148-2.5 6-31 73.7-63.5 150.3-32.4 76.6-58.8 139.7-58.6 140.3.2.6 6.4 3.7 13.8 6.9 7.4 3.3 14.9 6.7 16.5 7.6 7.3 4.1 52 23.3 52.6 22.7.4-.5 3.2-6.9 6.2-14.3s31.2-74.3 62.7-148.5c31.5-74.3 59.6-140.9 62.5-148 2.9-7.2 6-14.5 6.8-16.4l1.5-3.5 3.8 7.5c2.1 4.1 4.8 9.4 5.9 11.9 1.2 2.5 22.9 43.9 48.2 92 91.1 173.2 98.7 187.7 105.6 201.5 3.8 7.7 7.3 14.5 7.8 15.1.7.8 5.5-1.3 16.7-7.4 8.6-4.6 18-9.9 20.7-11.6 2.8-1.8 13.7-7.9 24.3-13.6 10.6-5.7 19.1-10.7 19-11.1-.2-.3-33-62.9-72.9-139C686 598.1 644.5 518.9 622.2 476l-6-11.5 33.4-79C668 342.1 683 306 683 305.4c0-.6-5.5-3.5-12.2-6.4-6.8-2.9-15-6.6-18.3-8.2-3.3-1.7-16.6-7.7-29.6-13.3l-23.6-10.2-4.8 11.6zM19.1 513.1c-7.7 1.3-12.7 4.5-15.1 9.4-1.9 4-2 6.2-2 64.1v60l2.3 4.4c5.1 10.2 14.3 11.5 79.2 10.6 52.7-.7 55.6-1.2 60.4-9.7 3.7-6.6 4.3-16.6 3.8-70.5-.4-54-.6-55.8-5.3-62.1-4.9-6.5-6.6-6.7-65.4-6.9-28.9-.1-54.9.2-57.9.7zM1039.5 512.7c-11.7 1.6-16.8 5.1-19.6 13.8-1.7 5.2-2.5 99-1 112.4 1.3 11.5 3.7 16.3 9.9 19.3 3.9 1.9 7.2 2.2 25.6 3 24.8 1.1 87.4.2 94.6-1.3 11.1-2.4 14.6-7.4 16-23 1.1-12.3 1.2-64.6.1-91-.7-16.8-1-19-3.2-23.4-2.9-5.9-6.6-8-16.4-9.4-6.6-1-99.2-1.3-106-.4zM156 749.4c-6.6 2.5-14.4 6.8-52.2 28.9-42 24.5-48 28.7-50.9 35.3-3.6 8-1.2 14.9 14.4 42.1 4.1 7 11.6 20.4 16.7 29.8 11.2 20.5 21 36.5 25.5 42.1 6.8 8.2 14 9.2 26.5 3.6 5.5-2.5 62.3-35.1 77.5-44.5 8.5-5.3 18.2-13 20.6-16.6 2.9-4.2 2.9-11.4-.1-19-1.1-3-9.8-19-19.2-35.5-28.1-49.4-36.8-62.5-43.9-66.1-3.4-1.8-10.1-1.8-14.9-.1zM995.2 750c-4.4 2.7-7.3 6-12.7 14.2-6.9 10.5-46.6 80.6-49.2 86.8-1.3 3.1-2.3 7.6-2.3 10.5 0 11.3 4.8 15.1 61 47.6 39.9 23.2 44.5 25.4 52.1 25.4 9.6 0 14.6-5.5 30.5-33.7 38.4-67.9 39.6-70.3 41-77.3 1.6-8.5-2.3-14.7-14.3-22.7-11.3-7.5-70.1-41.6-81.2-47.1-12.5-6.1-19.4-7.2-24.9-3.7zM301.5 936.8c-7.4 4.7-9.2 7.4-38.3 57.7-27.6 47.8-29.3 51.9-25.4 60.7 3.3 7.6 8 10.7 62.1 41.5 35.8 20.4 41.4 23.2 48.3 24 8.6 1 15.3-4.9 25.8-22.7 8.3-14.1 31.2-53.5 36.3-62.5 11.2-19.8 13.5-29.3 8.9-36.7-4.2-6.7-11-11.1-68.7-43.8-27.9-15.8-34.6-19.1-40.8-19.6-4-.4-5.9-.1-8.2 1.4zM850 937.3c-6.9 2.9-11.6 5.4-49 26.6-53.2 30.2-56.3 32.8-54.7 46.7.7 6.5 6.9 18.7 29.2 56.9 22.4 38.6 25.7 43.6 31.4 48.8 4.7 4.2 7.6 5.2 13.1 4.3 6.2-1 12.6-4.2 42.6-21.1 53.1-30 64.1-37.2 67-44.2 3.9-9.3 0-18.3-26.3-61.3-6.6-10.7-15.7-26-20.2-34-13.9-24.4-19.6-28.3-33.1-22.7zM532.4 1023c-9.6 1-15.6 3.7-18.4 8.2-3.7 6.1-4.1 14.1-3.7 69.4.3 56.3.4 57.6 5.3 63.4 5 5.8 6.8 6 67.9 6 60.3 0 62.4-.2 67.7-5.7 5.4-5.6 5.8-10 5.8-62.8 0-58.9-.7-66.1-7.3-73.3-4.7-5.1-8.3-5.5-60.7-5.8-26.7-.1-52.2.2-56.6.6z"/></svg>