<svg xmlns="http://www.w3.org/2000/svg" width="70" height="70"><svg filter="url(#a)" viewBox="-3 -3 65 65" width="70" height="70"><svg width="60" height="60" viewBox="17 -18 100 100"><path d="M90.2-12.3c-3.6-2.1-3.6-2.1-5.7 1.5l-2.1 3.6c-2.1 3.7-2.1 3.7 1.5 5.8L87.6.7c3.6 2.1 3.6 2.1 5.7-1.6l2.1-3.6c2.1-3.6 2.1-3.6-1.5-5.7l-3.7-2.1zm22.6 38.1h-4.2c-4.2 0-4.2 0-4.2 4.2v4.2c0 4.2 0 4.2 4.2 4.2h4.2c4.2 0 4.2 0 4.2-4.2V30c0-4.2 0-4.2-4.2-4.2zM69.1-18h-4.2c-4.2 0-4.2 0-4.2 4.2v4.2c0 4.2 0 4.2 4.2 4.2h4.2c4.2 0 4.2 0 4.2-4.2v-4.2c-.1-4.2-.1-4.2-4.2-4.2zm-25.3 5.7-3.7 2.1c-3.6 2.1-3.6 2.1-1.5 5.7L40.8-1c2.1 3.7 2.1 3.7 5.7 1.6l3.7-2.1c3.6-2.1 3.6-2.1 1.5-5.8l-2.1-3.6c-2.2-3.5-2.2-3.5-5.8-1.4zm62.4 59.7c-3.7-2.1-3.7-2.1-5.8 1.5l-2.1 3.7c-2.1 3.6-2.1 3.6 1.6 5.7l3.6 2.1c3.6 2.1 3.6 2.1 5.7-1.5l2.1-3.7c2.1-3.6 2.1-3.6-1.5-5.7l-3.6-2.1zm-18.6 16-3.7 2.1c-3.6 2.1-3.6 2.1-1.5 5.8l2.1 3.6c2.1 3.6 2.1 3.6 5.7 1.5l3.7-2.1c3.6-2.1 3.6-2.1 1.5-5.7L93.2 65c-2-3.7-2-3.7-5.6-1.6zM30.4 3.7c-3.6-2.1-3.6-2.1-5.7 1.5l-2.1 3.7c-2.1 3.6-2.1 3.6 1.5 5.7l3.6 2.1c3.7 2.1 3.7 2.1 5.8-1.5l2.1-3.7c2.1-3.6 2.1-3.6-1.6-5.7l-3.6-2.1zm-5.1 22.1h-4.2c-4.2 0-4.2 0-4.2 4.2v4.2c0 4.2 0 4.2 4.2 4.2h4.2c4.2 0 4.2 0 4.2-4.2V30c0-4.2 0-4.2-4.2-4.2zm43.8 43.7h-4.2c-4.2 0-4.2 0-4.2 4.2v4.2c0 4.2 0 4.2 4.2 4.2h4.2c4.2 0 4.2 0 4.2-4.2v-4.2c-.1-4.2-.1-4.2-4.2-4.2zM27.8 47.4l-3.6 2.1c-3.6 2.1-3.6 2.1-1.5 5.7l2.1 3.7c2.1 3.6 2.1 3.6 5.7 1.5l3.6-2.1c3.7-2.1 3.7-2.1 1.6-5.7l-2.1-3.7c-2.2-3.6-2.2-3.6-5.8-1.5zm18.6 16c-3.6-2.1-3.6-2.1-5.7 1.6l-2.1 3.6c-2.1 3.6-2.1 3.6 1.5 5.7l3.7 2.1c3.6 2.1 3.6 2.1 5.7-1.5l2.1-3.6c2.1-3.7 2.1-3.7-1.5-5.8l-3.7-2.1zm57.2-59.7L100 5.8c-3.7 2.1-3.7 2.1-1.6 5.7l2.1 3.7c2.1 3.6 2.1 3.6 5.8 1.5l3.6-2.1c3.6-2.1 3.6-2.1 1.5-5.7l-2.1-3.7c-2.1-3.6-2.1-3.6-5.7-1.5z"/></svg><path d="m29.177 26.71 9.44 17.97 2.14-1.16-10.34-19.68 3.25-7.7-2.27-.98-12.16 28.7 2.24.98z" stroke-width="2.2" stroke="red"/></svg><defs><filter id="a"><feColorMatrix values="0 0 0 0 1 0 0 0 0 0 0 0 0 0 0 0 0 0 1 0"/></filter></defs></svg>