<svg version="1.0" xmlns="http://www.w3.org/2000/svg" viewBox="0 0 340 250" color-interpolation-filters="sRGB" class="el-tooltip" style="margin:auto"><rect width="100%" height="100%" fill="#fff" class="background"/><rect width="100%" height="100%" fill="url(#watermark)" class="watermarklayer"/><g fill="#c33" class="icon-text-wrapper icon-svg-group iconsvg"><g class="iconsvg-imagesvg font-path" transform="translate(140 62.059)"><path class="image-rect" fill="none" d="M0 0h60v60H0z"/><svg filter="url(#a)" viewBox="0 0 60 60" width="60" height="60" class="image-svg-svg"><svg xmlns="http://www.w3.org/2000/svg" xmlns:xlink="http://www.w3.org/1999/xlink" viewBox="16.9 -18 100.1 100.1" enable-background="new 17 -18 100 100" xml:space="preserve" width="60" height="60"><path d="M90.2-12.3c-3.6-2.1-3.6-2.1-5.7 1.5l-2.1 3.6c-2.1 3.7-2.1 3.7 1.5 5.8L87.6.7c3.6 2.1 3.6 2.1 5.7-1.6l2.1-3.6c2.1-3.6 2.1-3.6-1.5-5.7l-3.7-2.1zm22.6 38.1h-4.2c-4.2 0-4.2 0-4.2 4.2v4.2c0 4.2 0 4.2 4.2 4.2h4.2c4.2 0 4.2 0 4.2-4.2V30c0-4.2 0-4.2-4.2-4.2zM69.1-18h-4.2c-4.2 0-4.2 0-4.2 4.2v4.2c0 4.2 0 4.2 4.2 4.2h4.2c4.2 0 4.2 0 4.2-4.2v-4.2c-.1-4.2-.1-4.2-4.2-4.2zm-25.3 5.7-3.7 2.1c-3.6 2.1-3.6 2.1-1.5 5.7L40.8-1c2.1 3.7 2.1 3.7 5.7 1.6l3.7-2.1c3.6-2.1 3.6-2.1 1.5-5.8l-2.1-3.6c-2.2-3.5-2.2-3.5-5.8-1.4zm62.4 59.7c-3.7-2.1-3.7-2.1-5.8 1.5l-2.1 3.7c-2.1 3.6-2.1 3.6 1.6 5.7l3.6 2.1c3.6 2.1 3.6 2.1 5.7-1.5l2.1-3.7c2.1-3.6 2.1-3.6-1.5-5.7l-3.6-2.1zm-18.6 16-3.7 2.1c-3.6 2.1-3.6 2.1-1.5 5.8l2.1 3.6c2.1 3.6 2.1 3.6 5.7 1.5l3.7-2.1c3.6-2.1 3.6-2.1 1.5-5.7L93.2 65c-2-3.7-2-3.7-5.6-1.6zM30.4 3.7c-3.6-2.1-3.6-2.1-5.7 1.5l-2.1 3.7c-2.1 3.6-2.1 3.6 1.5 5.7l3.6 2.1c3.7 2.1 3.7 2.1 5.8-1.5l2.1-3.7c2.1-3.6 2.1-3.6-1.6-5.7l-3.6-2.1zm-5.1 22.1h-4.2c-4.2 0-4.2 0-4.2 4.2v4.2c0 4.2 0 4.2 4.2 4.2h4.2c4.2 0 4.2 0 4.2-4.2V30c0-4.2 0-4.2-4.2-4.2zm43.8 43.7h-4.2c-4.2 0-4.2 0-4.2 4.2v4.2c0 4.2 0 4.2 4.2 4.2h4.2c4.2 0 4.2 0 4.2-4.2v-4.2c-.1-4.2-.1-4.2-4.2-4.2zM27.8 47.4l-3.6 2.1c-3.6 2.1-3.6 2.1-1.5 5.7l2.1 3.7c2.1 3.6 2.1 3.6 5.7 1.5l3.6-2.1c3.7-2.1 3.7-2.1 1.6-5.7l-2.1-3.7c-2.2-3.6-2.2-3.6-5.8-1.5zm18.6 16c-3.6-2.1-3.6-2.1-5.7 1.6l-2.1 3.6c-2.1 3.6-2.1 3.6 1.5 5.7l3.7 2.1c3.6 2.1 3.6 2.1 5.7-1.5l2.1-3.6c2.1-3.7 2.1-3.7-1.5-5.8l-3.7-2.1zm57.2-59.7L100 5.8c-3.7 2.1-3.7 2.1-1.6 5.7l2.1 3.7c2.1 3.6 2.1 3.6 5.8 1.5l3.6-2.1c3.6-2.1 3.6-2.1 1.5-5.7l-2.1-3.7c-2.1-3.6-2.1-3.6-5.7-1.5z"/></svg><path d="m29.177 26.71 9.45 17.96 2.14-1.16-10.36-19.67 3.25-7.7-2.27-.98-12.15 28.7 2.24.98Z" stroke-width="2.2" stroke="red"/></svg><defs><filter id="a"><feColorMatrix values="0 0 0 0 0.796875 0 0 0 0 0.19921875 0 0 0 0 0.19921875 0 0 0 1 0" class="icon-fecolormatrix"/></filter></defs></g><g transform="translate(104.48 129.059)" mask="url(#b)"><path d="m12.78 15.975 12.15 23.09 2.74-1.49-13.32-25.29 4.19-9.9-2.92-1.26L0 38.025l2.88 1.26Zm37.62 20.34-.45-3.11-9.81 1.4v-8.73h11.03c1.34 5.45 3.19 10.76 5.22 15.03l2.83-1.35c-1.85-3.87-3.51-8.68-4.82-13.68h5.81v-3.15h-6.57c-.54-2.43-.94-4.86-1.26-7.2h5.71V3.195h-21.1v35.05ZM40.14 6.345h14.81v6.03H40.14Zm9 9.18c.32 2.34.76 4.77 1.31 7.2H40.14v-7.2Zm44.82-12.38H68.31v37.22h3.15V6.305h19.35v34.06h3.15Zm-3.6 27.73-3.24-7.47c1.12-4.69 2.11-9.68 2.79-13.82l-3.1-.49c-.5 2.83-1.08 6.07-1.8 9.36l-2.53-5.94-1.34.58c.22-1.35.4-2.56.53-3.64l-3.1-.36c-.31 2.52-.86 5.76-1.53 9.22l-2.43-5.76-2.88 1.22 4.14 9.85c-1.03 4.18-2.2 8.24-3.47 11.03l2.89 1.3c.94-2.07 1.8-4.72 2.61-7.56l1.57 3.73 2.34-.94c-.45 1.4-.86 2.61-1.26 3.56l2.88 1.21c.77-1.8 1.62-4.46 2.43-7.56l1.62 3.73Zm-11.21-7.52c.59-2.43 1.04-4.86 1.45-7.11l3.24 7.43c-.59 2.38-1.17 4.63-1.76 6.57Zm32.36 5.94c1.08-.76 2.11-1.53 3.11-2.38v12.01h11.42v-12.19h-11.25c2.21-1.85 4.1-3.87 5.67-6.03 2.66 2.92 5.58 5.53 8.78 7.69l1.8-2.61c-3.19-2.16-6.16-4.82-8.78-7.78a32.26 32.26 0 0 0 4.19-11.43l.31-1.8h-8.23l1.71-3.42-2.84-1.35-6.07 12.28-2.97-1.12-1.71 4.36-2.88-1.66 4.72-11.52-2.92-1.22-5.76 14.13 5.72 3.24-2.84 7.25-3.96 1.35 1.03 2.97 10.27-3.56-.32.23Zm3.06-16.47c1.17 1.89 2.43 3.73 3.82 5.45-1.84 2.6-4.13 4.99-6.88 7.15l-.86-2.47-4.09 1.43 3.78-9.62 2.65 1.3Zm-2.84 21.65-1.03-2.98-11.75 4.15 1.04 2.96Zm6.03-4.6h5.13v5.9h-5.13Zm2.39-14.44a52.581 52.581 0 0 1-3.92-5.98l.77-1.53h5.98c-.63 2.65-1.53 5.17-2.83 7.51Z" class="tp-name iconsvg-namesvg"/><path d="M0 52.89h6v1H0zm125.04 0h6v1h-6zm-109.2-4.098H9v9.92h.84v-9.08H15v9.08h.84Zm-.96 7.39-.86-1.99c.3-1.25.56-2.58.74-3.69l-.83-.13c-.13.76-.29 1.62-.48 2.5l-.67-1.59-.36.16c.06-.36.11-.69.14-.97l-.82-.1c-.09.67-.23 1.54-.41 2.46l-.65-1.54-.77.33 1.11 2.63c-.28 1.11-.59 2.19-.93 2.94l.77.34c.25-.55.48-1.26.7-2.01l.42.99.62-.25c-.12.37-.23.7-.34.95l.77.32c.21-.48.43-1.18.65-2.01l.43.99Zm-2.99-2.01c.16-.64.28-1.29.39-1.89l.86 1.98c-.16.63-.31 1.23-.47 1.75Zm8.63 1.59c.29-.21.56-.41.83-.64v3.21h3.05v-3.26h-3a9.45 9.45 0 0 0 1.51-1.6c.71.78 1.49 1.47 2.34 2.05l.48-.7c-.85-.57-1.65-1.28-2.34-2.07.55-.93.93-1.95 1.11-3.05l.09-.48h-2.2l.46-.91-.76-.36-1.62 3.27-.79-.3-.46 1.17-.76-.45 1.26-3.07-.78-.32-1.54 3.76 1.52.87-.75 1.93-1.06.36.28.79 2.73-.95-.08.06Zm.82-4.39c.31.5.64.99 1.02 1.45a9.73 9.73 0 0 1-1.84 1.91l-.23-.66-1.09.38 1.01-2.57.71.35Zm-.76 5.77-.28-.79-3.13 1.1.28.79Zm1.61-1.23h1.37v1.58h-1.37Zm.63-3.85c-.38-.5-.73-1.04-1.04-1.59l.2-.41h1.6c-.17.71-.41 1.38-.76 2Zm10.9-.05h-2.93v-3.98h-.84v3.98h-2.93v.84h2.93v4.37h-3.48v.84h7.81v-.84h-3.49v-4.37h2.93Zm9.46-.73-1.64.3v-3.53h-.84v3.69l-.78.14v-2.91h-.84v3.06l-.84.15.16.83.68-.12v5.35h4.48v-.84h-3.64v-4.67l.78-.14v3.82h.84v-3.98l.8-.14v3.29h.84Zm-5.01.09h-.92v-3.1h-.84v3.1h-1.07v.84h1.07v3.34l-1.27.06.04.84 3.26-.15-.04-.84-1.15.06v-3.31h.92Zm10.54 5.42h3.51v-.84h-3.51v-.92h2.39v-2.69h-2.39v-.72h1.77v-1.73h1.64v-.84h-1.64v-1h-.84v1h-2.72v-1h-.84v1h-1.67v.84h1.67v1.73h1.79v.72h-2.43v2.69h2.43v.92h-3.55v.84h3.55v1.91h.84Zm-1.79-6.01v-.89h2.72v.89Zm-.64 2.4h1.59v1.01h-1.59Zm2.43 1.01v-1.01h1.55v1.01Zm8.19-.41h-2.65v3.54h2.65Zm4.72-1.91-4.13-3.41-4.16 3.3.53.65 3.62-2.87 3.61 2.98Zm-3 2.75h1.13v3.05h.84v-3.89h-2.81v4.91h.84Zm1.08-2.71h-4.54v.84h4.54Zm-4.61 2.71h.97v1.86h-.97Zm9.71-1.47v1.17h.9v-1.17Zm5.42 1.9v3.65h.84v-3.87l1.29-.34-.22-.82-1.07.29v-2.68h1.06v-.84h-1.06v-2.28h-.84v2.28h-1.2v.84h1.2v2.91l-1.39.37.22.8Zm7.06-6.12h-4.72v.84h1.94v8.94h.84v-8.94h1.94Zm1.92 2.93v6.84h.84v-9.06l.53-1.39-.79-.3-2.08 5.47.79.3Zm6.73-3.58h-.84v10.42h.84Zm-1.38 0h-.84v9.73h.84Zm-1.19.45h-2.88v.84h.53l-.6 2.66h3.16l-.49-2.27-.82.18.26 1.25h-1.05l.42-1.82h1.47Zm-.06 5.58h-.96v-1.6h-.84v1.6h-.97v.84h.97v1.71l-1.09.09.06.82 2.95-.22-.06-.84-1.02.08v-1.64h.96Zm5.52-2.4v1.39l-.26-.1-.41 1.18H86.9v.84h.98l-.36 1.07 1.15.69c-.53.39-1.14.66-1.78.71l.07.83c.92-.07 1.77-.51 2.46-1.08l1.11.67.44-.71-.93-.56c.46-.53.8-1.11.93-1.62h.55v-.61l.08.01.27-1.03c.22.64.48 1.32.77 1.96-.38.87-.89 1.71-1.52 2.46l.64.54c.51-.6.95-1.28 1.34-2.01.42.84.85 1.55 1.22 1.99l.65-.54c-.42-.49-.93-1.4-1.41-2.44.57-1.34.92-2.8 1-4.26h.67v-.84h-2.51l.63-2.26-.82-.23-1.75 6.42h-1.74l.31-.91-.25-.09h.56v-1.47l.89 1.03.64-.54-1.2-1.41h1.47v-.84h-.62l.38-1.71-.81-.18-.42 1.89h-.33v-2.2h-.84v2.2h-.32l-.44-1.9-.82.19.41 1.71h-.77v.84h1.62l-1.78 1.98.63.57Zm4.26 2.52c-.33-.87-.62-1.73-.78-2.43l.2-.71h1.22c-.06.94-.25 2.02-.64 3.14Zm-2.98.79c-.14.37-.41.79-.77 1.19l-.81-.5.23-.69Zm10.02-3.61h3.36v-2.88h-4.1l-.39 9.92.84.04Zm3.73 1.6h-1.35v-1.06h-.84v1.06h-1.26v.84h1.26v1.3h-.91v3.02h2.68v-3.02h-.93v-1.3h1.35Zm-5.19-2.73h-.87v-2.17h-.84v2.17h-.99v.84h.99v2.78l-1.24.36.24.81 1-.3v3.75h.84v-4.01l1.02-.3-.24-.8-.78.24v-2.53h.87Zm1.53-.91h2.45v1.2h-2.5Zm1.4 6.62h1v1.34h-1Zm7.56-3.3h-.57v-.35h-.84v.35h-.99v-.35h-.84v.35h-.75v.84h.75v1.06h.88v.16h-1.43v1.83h1.43v.36h-1.55v.84h1.55v.9h.84v-.9h1.47v-.84h-1.47v-.36h1.41v-1.83h-1.41v-.16h.95v-1.06h.57Zm3.48-4.51h-7.28v.84h3.19v.43h-2.98v2.72h.84v-1.88h2.14v1.9h.84v-1.9h2.15v1.88h.84v-2.72h-2.99v-.43h3.25Zm-.43 4.37h-2.6v6.13h.84v-1.61h.92v1.61h.84Zm-1.76 2.64h.92v1.04h-.92Zm.61-4.67h-1.06v.84h1.06Zm0 .95h-1.06v.84h1.06Zm.31 2.88h-.92v-.96h.92Zm-3.47-2.88h-1.04v.84h1.04Zm0-.95h-1.04v.84h1.04Zm-1.14 3.23v-.22h.99v.22Zm-.55 1.84h.59v.15h-.59Zm1.43.15v-.15h.57v.15Zm8.71-3.22 1.02 2.28.77-.35-1.62-3.61h.87v-.84h-1.04v-2.3h-.84v2.3h-1.25v.84h1.17l-1.77 4.47.78.31 1.07-2.69v5.39h.84Zm1.52 5.91c.78-.72 1.44-1.54 1.98-2.44.52 1.02 1.08 1.91 1.64 2.41l.56-.62c-.56-.51-1.18-1.54-1.69-2.69.79-1.63 1.25-3.52 1.34-5.64l.03-.44h-3.83v.84h2.94c-.11 1.53-.42 2.92-.93 4.17-.5-1.29-.85-2.61-.87-3.47l-.84.04c.03 1.12.54 2.87 1.22 4.46-.55 1.04-1.25 1.96-2.11 2.75Z" class="tp-slogan iconsvg-slogansvg"/></g></g><mask id="b"><path d="M16.02-21.69 28.17 1.4l2.74-1.49-13.32-25.29 4.19-9.9-2.92-1.26L3.24.36l2.88 1.26ZM53.64-1.35l-.45-3.11-9.81 1.4v-8.73h11.03c1.34 5.45 3.19 10.76 5.22 15.03l2.83-1.35c-1.85-3.87-3.51-8.68-4.82-13.68h5.81v-3.15h-6.57c-.54-2.43-.94-4.86-1.26-7.2h5.71v-12.33h-21.1V.58ZM43.38-31.32h14.81v6.03H43.38Zm9 9.18c.32 2.34.76 4.77 1.31 7.2H43.38v-7.2ZM97.2-34.52H71.55V2.7h3.15v-34.06h19.35V2.7h3.15ZM93.6-6.79l-3.24-7.47c1.12-4.69 2.11-9.68 2.79-13.82l-3.1-.49c-.5 2.83-1.08 6.07-1.8 9.36l-2.53-5.94-1.34.58c.22-1.35.4-2.56.53-3.64l-3.1-.36c-.31 2.52-.86 5.76-1.53 9.22l-2.43-5.76-2.88 1.22 4.14 9.85c-1.03 4.18-2.2 8.24-3.47 11.03l2.89 1.3c.94-2.07 1.8-4.72 2.61-7.56l1.57 3.73 2.34-.94c-.45 1.4-.86 2.61-1.26 3.56l2.88 1.21c.77-1.8 1.62-4.46 2.43-7.56l1.62 3.73Zm-11.21-7.52c.59-2.43 1.04-4.86 1.45-7.11l3.24 7.43c-.59 2.38-1.17 4.63-1.76 6.57Zm32.36 5.94c1.08-.76 2.11-1.53 3.11-2.38V1.26h11.42v-12.19h-11.25c2.21-1.85 4.1-3.87 5.67-6.03 2.66 2.92 5.58 5.53 8.78 7.69l1.8-2.61c-3.19-2.16-6.16-4.82-8.78-7.78a32.26 32.26 0 0 0 4.19-11.43l.31-1.8h-8.23l1.71-3.42-2.84-1.35-6.07 12.28-2.97-1.12-1.71 4.36-2.88-1.66 4.72-11.52-2.92-1.22-5.76 14.13 5.72 3.24-2.84 7.25-3.96 1.35L103-7.6l10.27-3.56-.32.23Zm3.06-16.47c1.17 1.89 2.43 3.73 3.82 5.45-1.84 2.6-4.13 4.99-6.88 7.15l-.86-2.47-4.09 1.43 3.78-9.62 2.65 1.3Zm-2.84 21.65-1.03-2.98-11.75 4.15 1.04 2.96Zm6.03-4.6h5.13v5.9H121Zm2.39-14.44a52.581 52.581 0 0 1-3.92-5.98l.77-1.53h5.98c-.63 2.65-1.53 5.17-2.83 7.51Z" transform="translate(-3.24 37.665)" class="tp-name iconsvg-namesvg" fill="#fff"/><path transform="translate(-2 45.9)" d="M0 0h135.04v14.98H0z"/><g class="tp-slogan iconsvg-slogansvg" fill="#fff"><path d="M0 4.99h6v1H0zm125.04 0h6v1h-6z" transform="translate(0 47.9)"/><path d="M7.92-9.2H1.08V.72h.84v-9.08h5.16V.72h.84Zm-.96 7.39L6.1-3.8c.3-1.25.56-2.58.74-3.69l-.83-.13c-.13.76-.29 1.62-.48 2.5l-.67-1.59-.36.16c.06-.36.11-.69.14-.97l-.82-.1c-.09.67-.23 1.54-.41 2.46L2.76-6.7l-.77.33L3.1-3.74c-.28 1.11-.59 2.19-.93 2.94l.77.34c.25-.55.48-1.26.7-2.01l.42.99.62-.25c-.12.37-.23.7-.34.95l.77.32c.21-.48.43-1.18.65-2.01l.43.99ZM3.97-3.82c.16-.64.28-1.29.39-1.89l.86 1.98c-.16.63-.31 1.23-.47 1.75Zm8.63 1.59c.29-.21.56-.41.83-.64V.34h3.05v-3.26h-3a9.45 9.45 0 0 0 1.51-1.6c.71.78 1.49 1.47 2.34 2.05l.48-.7c-.85-.57-1.65-1.28-2.34-2.07.55-.93.93-1.95 1.11-3.05l.09-.48h-2.2l.46-.91-.76-.36-1.62 3.27-.79-.3-.46 1.17-.76-.45 1.26-3.07-.78-.32-1.54 3.76 1.52.87-.75 1.93-1.06.36.28.79 2.73-.95-.08.06Zm.82-4.39c.31.5.64.99 1.02 1.45a9.73 9.73 0 0 1-1.84 1.91l-.23-.66-1.09.38 1.01-2.57.71.35Zm-.76 5.77-.28-.79-3.13 1.1.28.79Zm1.61-1.23h1.37V-.5h-1.37Zm.63-3.85c-.38-.5-.73-1.04-1.04-1.59l.2-.41h1.6c-.17.71-.41 1.38-.76 2Zm10.9-.05h-2.93v-3.98h-.84v3.98H19.1v.84h2.93v4.37h-3.48v.84h7.81v-.84h-3.49v-4.37h2.93Zm9.46-.73-1.64.3v-3.53h-.84v3.69l-.78.14v-2.91h-.84v3.06l-.84.15.16.83.68-.12V.25h4.48v-.84H32v-4.67l.78-.14v3.82h.84v-3.98l.8-.14v3.29h.84Zm-5.01.09h-.92v-3.1h-.84v3.1h-1.07v.84h1.07v3.34l-1.27.06.04.84 3.26-.15-.04-.84-1.15.06v-3.31h.92ZM40.79-1.2h3.51v-.84h-3.51v-.92h2.39v-2.69h-2.39v-.72h1.77V-8.1h1.64v-.84h-1.64v-1h-.84v1H39v-1h-.84v1h-1.67v.84h1.67v1.73h1.79v.72h-2.43v2.69h2.43v.92H36.4v.84h3.55V.71h.84ZM39-7.21v-.89h2.72v.89Zm-.64 2.4h1.59v1.01h-1.59Zm2.43 1.01v-1.01h1.55v1.01Zm8.19-.41h-2.65v3.54h2.65Zm4.72-1.91-4.13-3.41-4.16 3.3.53.65 3.62-2.87 3.61 2.98Zm-3 2.75h1.13v3.05h.84v-3.89h-2.81V.7h.84Zm1.08-2.71h-4.54v.84h4.54Zm-4.61 2.71h.97v1.86h-.97Zm9.71-1.47v1.17h.9v-1.17Zm5.42 1.9V.71h.84v-3.87l1.29-.34-.22-.82-1.07.29v-2.68h1.06v-.84h-1.06v-2.28h-.84v2.28h-1.2v.84h1.2v2.91l-1.39.37.22.8Zm7.06-6.12h-4.72v.84h1.94V.72h.84v-8.94h1.94Zm1.92 2.93V.71h.84v-9.06l.53-1.39-.79-.3-2.08 5.47.79.3Zm6.73-3.58h-.84V.71h.84Zm-1.38 0h-.84V.02h.84Zm-1.19.45h-2.88v.84h.53l-.6 2.66h3.16l-.49-2.27-.82.18.26 1.25h-1.05l.42-1.82h1.47Zm-.06 5.58h-.96v-1.6h-.84v1.6h-.97v.84h.97v1.71l-1.09.09.06.82 2.95-.22-.06-.84-1.02.08v-1.64h.96Zm5.52-2.4v1.39l-.26-.1-.41 1.18h-1.25v.84h.98L79.6-1.7l1.15.69c-.53.39-1.14.66-1.78.71l.07.83c.92-.07 1.77-.51 2.46-1.08l1.11.67.44-.71-.93-.56c.46-.53.8-1.11.93-1.62h.55v-.61l.08.01.27-1.03c.22.64.48 1.32.77 1.96-.38.87-.89 1.71-1.52 2.46l.64.54c.51-.6.95-1.28 1.34-2.01.42.84.85 1.55 1.22 1.99l.65-.54c-.42-.49-.93-1.4-1.41-2.44.57-1.34.92-2.8 1-4.26h.67v-.84H84.8l.63-2.26-.82-.23-1.75 6.42h-1.74l.31-.91-.25-.09h.56v-1.47l.89 1.03.64-.54L82.07-7h1.47v-.84h-.62l.38-1.71-.81-.18-.42 1.89h-.33v-2.2h-.84v2.2h-.32l-.44-1.9-.82.19.41 1.71h-.77V-7h1.62L78.8-5.02l.63.57Zm4.26 2.52c-.33-.87-.62-1.73-.78-2.43l.2-.71h1.22c-.06.94-.25 2.02-.64 3.14Zm-2.98.79c-.14.37-.41.79-.77 1.19l-.81-.5.23-.69ZM92.2-6.38h3.36v-2.88h-4.1L91.07.66l.84.04Zm3.73 1.6h-1.35v-1.06h-.84v1.06h-1.26v.84h1.26v1.3h-.91V.38h2.68v-3.02h-.93v-1.3h1.35Zm-5.19-2.73h-.87v-2.17h-.84v2.17h-.99v.84h.99v2.78l-1.24.36.24.81 1-.3V.73h.84v-4.01l1.02-.3-.24-.8-.78.24v-2.53h.87Zm1.53-.91h2.45v1.2h-2.5Zm1.4 6.62h1v1.34h-1Zm7.56-3.3h-.57v-.35h-.84v.35h-.99v-.35h-.84v.35h-.75v.84h.75v1.06h.88v.16h-1.43v1.83h1.43v.36h-1.55v.84h1.55v.9h.84v-.9h1.47v-.84h-1.47v-.36h1.41v-1.83h-1.41v-.16h.95v-1.06h.57Zm3.48-4.51h-7.28v.84h3.19v.43h-2.98v2.72h.84V-7.5h2.14v1.9h.84v-1.9h2.15v1.88h.84v-2.72h-2.99v-.43h3.25Zm-.43 4.37h-2.6V.89h.84V-.72h.92V.89h.84Zm-1.76 2.64h.92v1.04h-.92Zm.61-4.67h-1.06v.84h1.06Zm0 .95h-1.06v.84h1.06Zm.31 2.88h-.92v-.96h.92Zm-3.47-2.88h-1.04v.84h1.04Zm0-.95h-1.04v.84h1.04Zm-1.14 3.23v-.22h.99v.22Zm-.55 1.84h.59v.15h-.59Zm1.43.15v-.15h.57v.15Zm8.71-3.22 1.02 2.28.77-.35-1.62-3.61h.87v-.84h-1.04v-2.3h-.84v2.3h-1.25v.84h1.17l-1.77 4.47.78.31 1.07-2.69V.53h.84Zm1.52 5.91c.78-.72 1.44-1.54 1.98-2.44.52 1.02 1.08 1.91 1.64 2.41l.56-.62c-.56-.51-1.18-1.54-1.69-2.69.79-1.63 1.25-3.52 1.34-5.64l.03-.44h-3.83v.84h2.94c-.11 1.53-.42 2.92-.93 4.17-.5-1.29-.85-2.61-.87-3.47l-.84.04c.03 1.12.54 2.87 1.22 4.46-.55 1.04-1.25 1.96-2.11 2.75Z" transform="translate(7.92 57.992)"/></g></mask></svg>